<svg xmlns="http://www.w3.org/2000/svg" viewBox="0 0 180 180" role="img" aria-label="Storyboard from script">
  <defs>
    <linearGradient id="g" x1="0%" y1="0%" x2="100%" y2="100%">
      <stop offset="0%" stop-color="#27FF28"/>
      <stop offset="77%" stop-color="#22D469"/>
      <stop offset="100%" stop-color="#1DB459"/>
    </linearGradient>
  </defs>
  <rect width="180" height="180" rx="42" fill="#1A1D21"/>
  <path transform="translate(32 14) scale(0.85)" fill="url(#g)" d="M25.0615 0C29.1936 -3.55586e-07 33.2361 0.351715 37.1885 1.05469C41.1406 1.58184 44.015 2.10856 45.8115 2.63574V46.3955C52.4587 44.1109 59.645 42.9688 67.3701 42.9688C77.6104 42.9688 86.8629 44.3747 95.127 47.1865C103.571 49.9984 110.757 54.2153 116.686 59.8389C122.614 65.6382 127.195 72.756 130.429 81.1914C133.662 89.6269 135.279 99.4685 135.279 110.716C135.279 122.49 133.393 132.596 129.62 141.031C125.847 149.642 120.637 156.759 113.99 162.383C107.343 168.006 99.3486 172.136 90.0068 174.772C80.8446 177.584 70.8737 178.99 60.0947 178.99C49.8545 178.99 40.6019 177.936 32.3379 175.827C24.0739 173.718 17.1572 170.906 11.5879 167.392C7.99487 164.931 5.11969 162.207 2.96387 159.22C0.987825 156.232 4.21395e-07 152.366 0 147.621V146.133H50.1836C53.7774 146.133 57.2244 144.979 59.7656 142.925C62.3068 140.871 63.7344 138.085 63.7344 135.18V124.811L91.8047 137.646C92.7544 138.08 93.8105 138.285 94.8711 138.241C95.9315 138.197 96.9622 137.907 97.8652 137.396C98.7685 136.886 99.5139 136.172 100.031 135.324C100.548 134.476 100.821 133.522 100.821 132.551V93.999C100.821 93.0279 100.549 92.0727 100.031 91.2246C99.5139 90.3767 98.7684 89.6637 97.8652 89.1533C96.9621 88.643 95.9316 88.3524 94.8711 88.3086C93.8105 88.2649 92.7544 88.4692 91.8047 88.9033L63.7344 101.738V91.3691C63.7344 88.4643 62.3068 85.678 59.7656 83.624C57.2244 81.5701 53.7773 80.416 50.1836 80.416H0V21.0889C-3.90183e-07 16.6955 0.539315 13.181 1.61719 10.5449C2.69513 7.73306 4.31188 5.53574 6.46777 3.9541C8.6235 2.37258 11.2284 1.31822 14.2822 0.791016C17.516 0.263801 21.1093 7.69099e-06 25.0615 0Z"/>
</svg>
